
<svg width="46px" height="46px" viewBox="0 0 46 46" version="1.1" xmlns="http://www.w3.org/2000/svg" xmlns:xlink="http://www.w3.org/1999/xlink">
    <defs>
        <circle id="path-1" cx="22.5882014" cy="22.5882014" r="22.5882014"></circle>
    </defs>
    <g id="Page-1" stroke="none" stroke-width="1" fill="none" fill-rule="evenodd">
        <g id="Desktop" transform="translate(-65.000000, -53.000000)">
            <g id="Path-8-+-Path-8-Copy-Mask" transform="translate(65.126691, 53.649672)">
                <mask id="mask-2" fill="white">
                    <use xlink:href="#path-1"></use>
                </mask>
                <use id="Mask" fill="#FFC545" xlink:href="#path-1"></use>
                <path d="M-21.6982014,45.1482888 C-21.6982014,45.1482888 -10.4527065,46.4087188 -4.51824113,32.0505845 C1.41622426,17.6924502 12.7070733,18.7613535 12.7070733,18.7613535 C12.7070733,18.7613535 24.5290446,17.6924502 30.5032604,32.0505845 C36.4774762,46.4087188 57.8371654,44.2822945 71.3194154,44.2822936 C84.8016655,44.2822926 -21.6982014,45.1482888 -21.6982014,45.1482888 Z" id="Path-8" fill="#0056FF" opacity="0.800571987" mask="url(#mask-2)"></path>
                <path d="M-17.2719809,46.5117875 C-17.2719809,46.5117875 9.7254038,46.7346294 15.6179617,29.4296276 C21.5105197,12.1246257 34.033089,13.406965 34.033089,13.406965 C34.033089,13.406965 44.6930495,12.1246263 50.6250772,29.429628 C56.5571049,46.7346298 73.530207,47.9888041 86.9172494,47.988803 C100.304292,47.9888018 -17.2719809,46.5117875 -17.2719809,46.5117875 Z" id="Path-8-Copy" fill-opacity="0.823596014" fill="#FF3E3E" mask="url(#mask-2)"></path>
            </g>
        </g>
    </g>
</svg>